{"title":"Sedem chasa razlika - S03E08 - SatRip","uid":7821877,"size":353773459,"categoryP":"video","categoryS":"tv_shows","magnet":"?xt=urn:btih:09a516d2312031a1a99f0c27875b117aff502a40&amp;dn=Sedem+chasa+razlika+-+S03E08+-+SatRip&amp;tr=udp%3A%2F%2Ftracker.openbittorrent.com%3A80&amp;tr=udp%3A%2F%2Fopen.demonii.com%3A1337&amp;tr=udp%3A%2F%2Ftracker.coppersurfer.tk%3A6969&amp;tr=udp%3A%2F%2Fexodus.desync.com%3A6969","seeders":1,"leechers":0,"uploader":null,"files":1,"time":1352841524,"description":"Input #0, mov,mp4,m4a,3gp,3g2,mj2, from 'Sedem chasa razlika - Season 3 - Episode 8.mp4':\n  Metadata:\n    major_brand     : mp42\n    minor_version   : 0\n    compatible_brands: mp42isomavc1\n    creation_time   : 2012-11-13 20:07:57\n    encoder         : HandBrake 5044svn 2012110601\n  Duration: 00:47:22.58, start: 0.000000, bitrate: 995 kb/s\n    Stream #0:0(und): Video: h264 (Main) (avc1 / 0x31637661), yuv420p, 720x576 [SAR 16:11 DAR 20:11], 910 kb/s, 25 fps, 25 tbr, 90k tbn, 180k tbc\n    Metadata:\n      creation_time   : 2012-11-13 20:07:57\n    Stream #0:1(und): Audio: aac (mp4a / 0x6134706D), 48000 Hz, stereo, s16, 79 kb/s\n    Metadata:\n      creation_time   : 2012-11-13 20:07:57","torrent":{"xt":"urn:btih:09a516d2312031a1a99f0c27875b117aff502a40","amp;dn":"Sedem+chasa+razlika+-+S03E08+-+SatRip","amp;tr":["udp%3A%2F%2Ftracker.openbittorrent.com%3A80","udp%3A%2F%2Fopen.demonii.com%3A1337","udp%3A%2F%2Ftracker.coppersurfer.tk%3A6969","udp%3A%2F%2Fexodus.desync.com%3A6969"],"infoHash":"09a516d2312031a1a99f0c27875b117aff502a40","infoHashBuffer":{"type":"Buffer","data":[9,165,22,210,49,32,49,161,169,159,12,39,135,91,17,122,255,80,42,64]},"announce":[],"urlList":[]}}